<svg width="18" height="14" viewBox="0 0 18 14" fill="none" xmlns="http://www.w3.org/2000/svg">
<path d="M0.88575 7C1.59075 3.16 4.956 0.25 9 0.25C13.044 0.25 16.4085 3.16 17.1143 7C16.4093 10.84 13.044 13.75 9 13.75C4.956 13.75 1.5915 10.84 0.88575 7ZM9 10.75C9.99456 10.75 10.9484 10.3549 11.6517 9.65165C12.3549 8.94839 12.75 7.99456 12.75 7C12.75 6.00544 12.3549 5.05161 11.6517 4.34835C10.9484 3.64509 9.99456 3.25 9 3.25C8.00544 3.25 7.05161 3.64509 6.34835 4.34835C5.64509 5.05161 5.25 6.00544 5.25 7C5.25 7.99456 5.64509 8.94839 6.34835 9.65165C7.05161 10.3549 8.00544 10.75 9 10.75ZM9 9.25C8.40326 9.25 7.83097 9.01295 7.40901 8.59099C6.98705 8.16903 6.75 7.59674 6.75 7C6.75 6.40326 6.98705 5.83097 7.40901 5.40901C7.83097 4.98705 8.40326 4.75 9 4.75C9.59674 4.75 10.169 4.98705 10.591 5.40901C11.0129 5.83097 11.25 6.40326 11.25 7C11.25 7.59674 11.0129 8.16903 10.591 8.59099C10.169 9.01295 9.59674 9.25 9 9.25Z" fill="white"/>
</svg>
