<svg width="14" height="14" viewBox="0 0 14 14" fill="none" xmlns="http://www.w3.org/2000/svg">
<path d="M6.05833 0.333374C9.24613 0.333374 11.8333 3.02137 11.8333 6.33337C11.8333 9.64537 9.24613 12.3334 6.05833 12.3334C2.87053 12.3334 0.283333 9.64537 0.283333 6.33337C0.283333 3.02137 2.87053 0.333374 6.05833 0.333374ZM6.05833 11C8.53966 11 10.55 8.91137 10.55 6.33337C10.55 3.75471 8.53966 1.66671 6.05833 1.66671C3.57637 1.66671 1.56667 3.75471 1.56667 6.33337C1.56667 8.91137 3.57637 11 6.05833 11ZM11.5029 11.0474L13.3181 12.9327L12.4102 13.876L10.5956 11.99L11.5029 11.0474Z" fill="black"/>
</svg>
